<?xml version="1.0" standalone="no"?>
<!DOCTYPE svg PUBLIC "-//W3C//DTD SVG 20010904//EN"
 "http://www.w3.org/TR/2001/REC-SVG-20010904/DTD/svg10.dtd">
<svg version="1.0" xmlns="http://www.w3.org/2000/svg"
 width="512.000000pt" height="512.000000pt" viewBox="0 0 512.000000 512.000000"
 preserveAspectRatio="xMidYMid meet">
<metadata>
Created by potrace 1.15, written by Peter Selinger 2001-2017
</metadata>
<g transform="translate(0.000000,512.000000) scale(0.100000,-0.100000)"
fill="#000000" stroke="none">
<path d="M1040 3000 l0 -40 1338 -2 1337 -3 65 -31 c278 -132 285 -512 12
-646 l-67 -33 -1342 -3 -1343 -2 0 -40 0 -40 1353 2 1352 3 55 22 c111 46 208
143 252 253 32 79 32 241 0 320 -44 110 -141 207 -252 253 l-55 22 -1352 3
-1353 2 0 -40z"/>
<path d="M1485 1358 c-4 -112 -5 -233 -3 -270 l3 -68 103 91 103 91 85 -72
c46 -40 87 -76 90 -81 25 -41 30 64 17 359 l-6 152 -192 0 -193 0 -7 -202z"/>
</g>
</svg>
