<?xml version="1.0" standalone="no"?>
<!DOCTYPE svg PUBLIC "-//W3C//DTD SVG 20010904//EN"
 "http://www.w3.org/TR/2001/REC-SVG-20010904/DTD/svg10.dtd">
<svg version="1.0" xmlns="http://www.w3.org/2000/svg"
 width="512.000000pt" height="512.000000pt" viewBox="0 0 512.000000 512.000000"
 preserveAspectRatio="xMidYMid meet">
<metadata>
Created by potrace 1.11, written by Peter Selinger 2001-2013
</metadata>
<g transform="translate(0.000000,512.000000) scale(0.100000,-0.100000)"
fill="#000000" stroke="none">
<path d="M2379 5116 c-2 -2 -40 -6 -83 -10 -44 -4 -82 -8 -85 -10 -3 -2 -31
-7 -61 -11 -30 -3 -86 -13 -124 -22 -37 -8 -73 -16 -80 -17 -47 -10 -281 -83
-301 -95 -5 -3 -15 -6 -21 -7 -24 -4 -245 -111 -334 -162 -719 -414 -1191
-1138 -1278 -1962 -3 -36 -6 -157 -6 -270 0 -184 3 -241 19 -345 3 -16 7 -43
9 -60 55 -386 256 -843 516 -1170 400 -502 989 -850 1595 -940 22 -4 51 -8 65
-11 103 -19 468 -26 605 -11 599 62 1141 322 1562 748 186 188 323 374 441
597 70 132 148 313 179 417 20 69 73 273 77 302 3 21 8 52 11 68 23 136 29
216 30 410 0 166 -6 285 -19 360 -3 17 -8 44 -10 60 -3 17 -9 53 -15 80 -6 28
-13 61 -15 75 -19 96 -80 286 -133 415 -271 658 -831 1188 -1508 1428 -84 30
-149 50 -200 63 -78 19 -155 37 -175 40 -84 14 -85 14 -195 30 -44 6 -460 15
-466 10z"/>
</g>
</svg>
